<svg width="14" height="14" viewBox="0 0 14 14" fill="none" xmlns="http://www.w3.org/2000/svg">
<path d="M6.99998 3.66683C6.63331 3.66683 6.33331 3.96683 6.33331 4.3335V6.3335H4.33331C3.96665 6.3335 3.66665 6.6335 3.66665 7.00016C3.66665 7.36683 3.96665 7.66683 4.33331 7.66683H6.33331V9.66683C6.33331 10.0335 6.63331 10.3335 6.99998 10.3335C7.36665 10.3335 7.66665 10.0335 7.66665 9.66683V7.66683H9.66665C10.0333 7.66683 10.3333 7.36683 10.3333 7.00016C10.3333 6.6335 10.0333 6.3335 9.66665 6.3335H7.66665V4.3335C7.66665 3.96683 7.36665 3.66683 6.99998 3.66683ZM6.99998 0.333496C3.31998 0.333496 0.333313 3.32016 0.333313 7.00016C0.333313 10.6802 3.31998 13.6668 6.99998 13.6668C10.68 13.6668 13.6666 10.6802 13.6666 7.00016C13.6666 3.32016 10.68 0.333496 6.99998 0.333496ZM6.99998 12.3335C4.05998 12.3335 1.66665 9.94016 1.66665 7.00016C1.66665 4.06016 4.05998 1.66683 6.99998 1.66683C9.93998 1.66683 12.3333 4.06016 12.3333 7.00016C12.3333 9.94016 9.93998 12.3335 6.99998 12.3335Z" fill="#9873FF"/>
</svg>
